<?xml version="1.0" standalone="no"?>
<!DOCTYPE svg PUBLIC "-//W3C//DTD SVG 20010904//EN"
 "http://www.w3.org/TR/2001/REC-SVG-20010904/DTD/svg10.dtd">
<svg version="1.0" xmlns="http://www.w3.org/2000/svg"
 width="404.000000pt" height="220.000000pt" viewBox="0 0 404.000000 220.000000"
 preserveAspectRatio="xMidYMid meet">

<g transform="translate(0.000000,220.000000) scale(0.100000,-0.100000)"
fill="#000000" stroke="none">
<path d="M4025 2190 c3 -5 8 -10 11 -10 2 0 4 5 4 10 0 6 -5 10 -11 10 -5 0
-7 -4 -4 -10z"/>
<path d="M1883 2170 c-211 -27 -398 -79 -756 -211 -318 -117 -428 -151 -566
-174 -140 -24 -330 -17 -459 17 -51 13 -91 21 -90 18 2 -4 31 -56 66 -116 175
-304 458 -599 772 -807 136 -90 373 -205 527 -256 426 -142 878 -143 1333 -4
227 69 526 213 738 355 40 27 79 47 86 45 19 -7 46 -113 58 -225 12 -112 -1
-293 -33 -457 -10 -55 -19 -103 -19 -106 0 -4 25 -14 56 -24 109 -34 224 4
318 106 82 88 90 125 70 298 -43 380 -160 662 -372 905 -250 287 -718 530
-1187 617 -125 23 -423 34 -542 19z m517 -109 c203 -35 397 -100 615 -206 435
-210 709 -520 820 -929 55 -202 79 -429 52 -483 -25 -48 -104 -111 -160 -128
-88 -26 -85 -32 -60 113 25 149 23 433 -5 534 -24 87 -60 164 -90 192 -21 18
-23 17 -149 -67 -381 -252 -755 -399 -1138 -447 -217 -28 -523 -9 -728 45
-394 103 -726 294 -1028 595 -121 119 -295 327 -284 338 2 2 41 -10 86 -27
200 -77 436 -121 642 -121 156 0 308 20 547 70 195 42 334 69 337 67 1 -1 35
-64 76 -140 l74 -138 77 151 c42 82 81 150 87 150 14 0 13 -3 -36 -100 l-45
-90 204 0 205 0 -11 31 c-6 17 -26 54 -45 81 -18 28 -31 53 -28 57 11 10 225
-39 355 -81 135 -44 288 -106 413 -170 44 -21 80 -38 82 -36 6 6 35 81 33 83
-28 25 -322 151 -458 197 -248 85 -440 118 -680 118 -190 0 -328 -18 -610 -78
-328 -71 -368 -76 -575 -76 -155 0 -209 4 -295 22 -126 26 -280 72 -280 84 0
4 24 8 53 8 135 0 366 65 792 223 273 101 476 155 666 176 122 14 355 5 489
-18z"/>
<path d="M1821 1549 c-54 -87 -81 -216 -67 -313 l7 -46 145 0 146 0 -68 128
c-37 70 -84 158 -105 196 l-37 69 -21 -34z"/>
<path d="M1580 1484 c-140 -39 -330 -74 -395 -74 -85 0 -80 -11 27 -60 128
-58 256 -135 404 -242 176 -127 162 -120 132 -68 -70 121 -92 306 -50 423 11
31 17 57 14 56 -4 -1 -63 -16 -132 -35z"/>
<path d="M2560 1506 c0 -2 7 -16 15 -33 51 -102 30 -334 -41 -438 -23 -35 -24
-35 -2 -24 12 7 45 27 73 44 131 84 275 142 474 189 57 14 105 27 107 29 8 8
-235 116 -336 150 -100 34 -290 88 -290 83z"/>
<path d="M2220 1404 c0 -8 190 -367 201 -378 5 -5 23 23 43 65 41 85 60 190
48 264 l-7 50 -143 3 c-78 1 -142 0 -142 -4z"/>
<path d="M2212 1178 c-27 -51 -73 -139 -101 -195 l-51 -103 26 -6 c41 -10 134
5 191 31 64 29 123 75 123 95 -1 8 -31 73 -69 143 l-68 129 -51 -94z"/>
<path d="M1781 1133 c34 -91 118 -186 201 -227 28 -14 52 -25 53 -23 1 1 34
64 74 140 l72 137 -205 0 -206 0 11 -27z"/>
<path d="M2365 493 c-106 -19 -392 -21 -523 -4 -57 7 -104 12 -106 10 -2 -2
-6 -23 -10 -45 l-6 -41 38 -7 c20 -3 102 -11 181 -18 l143 -12 -5 -52 c-13
-131 -105 -214 -235 -214 -46 0 -67 5 -94 23 l-34 24 -38 -24 c-37 -24 -37
-25 -20 -44 76 -84 237 -99 350 -34 89 52 164 171 164 263 0 20 4 43 9 50 4 8
45 17 102 22 125 13 173 20 186 28 13 8 2 84 -12 87 -6 2 -46 -4 -90 -12z"/>
</g>
</svg>
